# xmcd CD database file generated by Grip 3.3.1
# 
# Track frame offsets:
#       150
#       23259
#       39325
#       55889
#       72763
#       90085
#       113841
#       142165
#       157131
#       175073
#       199518
# 
# Disc length: 2903 seconds
# 
# Revision: 1
# Processed by: cddbd v1.5.2PL0 Copyright (c) Steve Scherf et al.
# Submitted via: Grip 3.3.1
# 
DISCID=840b550b
DTITLE=Fleurine - San Francisco
DYEAR=2008
DGENRE=Jazz
TTITLE0=Love Marks
TTITLE1=E Se
TTITLE2=Tatuagem
TTITLE3=Memories In Black And White
TTITLE4=Encontro
TTITLE5=Anoiteceu
TTITLE6=The Roses
TTITLE7=Behind Closed Doors
TTITLE8=Tempestade
TTITLE9=Spring-Buds Through The Snow
TTITLE10=Passagem
EXTD=YEAR: 2008
EXTT0=
EXTT1=
EXTT2=
EXTT3=
EXTT4=
EXTT5=
EXTT6=
EXTT7=
EXTT8=
EXTT9=
EXTT10=
PLAYORDER=
